<svg width="16" height="16" viewBox="0 0 16 16" fill="none" xmlns="http://www.w3.org/2000/svg">
<path d="M0 1.66667C0 1.29722 0.297222 1 0.666667 1H1.93056C2.54167 1 3.08333 1.35556 3.33611 1.88889H14.7528C15.4833 1.88889 16.0167 2.58333 15.825 3.28889L14.6861 7.51944C14.45 8.39167 13.6583 9 12.7556 9H4.74167L4.89167 9.79167C4.95278 10.1056 5.22778 10.3333 5.54722 10.3333H13.5556C13.925 10.3333 14.2222 10.6306 14.2222 11C14.2222 11.3694 13.925 11.6667 13.5556 11.6667H5.54722C4.58611 11.6667 3.76111 10.9833 3.58333 10.0417L2.15 2.51389C2.13056 2.40833 2.03889 2.33333 1.93056 2.33333H0.666667C0.297222 2.33333 0 2.03611 0 1.66667ZM3.55556 13.8889C3.55556 13.7138 3.59004 13.5404 3.65705 13.3786C3.72406 13.2169 3.82227 13.0699 3.94608 12.9461C4.06989 12.8223 4.21688 12.7241 4.37864 12.657C4.54041 12.59 4.71379 12.5556 4.88889 12.5556C5.06398 12.5556 5.23737 12.59 5.39913 12.657C5.5609 12.7241 5.70789 12.8223 5.8317 12.9461C5.95551 13.0699 6.05372 13.2169 6.12073 13.3786C6.18773 13.5404 6.22222 13.7138 6.22222 13.8889C6.22222 14.064 6.18773 14.2374 6.12073 14.3991C6.05372 14.5609 5.95551 14.7079 5.8317 14.8317C5.70789 14.9555 5.5609 15.0537 5.39913 15.1207C5.23737 15.1877 5.06398 15.2222 4.88889 15.2222C4.71379 15.2222 4.54041 15.1877 4.37864 15.1207C4.21688 15.0537 4.06989 14.9555 3.94608 14.8317C3.82227 14.7079 3.72406 14.5609 3.65705 14.3991C3.59004 14.2374 3.55556 14.064 3.55556 13.8889ZM12.8889 12.5556C13.2425 12.5556 13.5816 12.696 13.8317 12.9461C14.0817 13.1961 14.2222 13.5353 14.2222 13.8889C14.2222 14.2425 14.0817 14.5816 13.8317 14.8317C13.5816 15.0817 13.2425 15.2222 12.8889 15.2222C12.5353 15.2222 12.1961 15.0817 11.9461 14.8317C11.696 14.5816 11.5556 14.2425 11.5556 13.8889C11.5556 13.5353 11.696 13.1961 11.9461 12.9461C12.1961 12.696 12.5353 12.5556 12.8889 12.5556Z" fill="white"/>
</svg>
