<svg width="22" height="22" viewBox="0 0 22 22" fill="none" xmlns="http://www.w3.org/2000/svg">
<path d="M3.793 12.7493H18.965C19.1313 12.7494 19.293 12.6967 19.4252 12.5992C19.5575 12.5017 19.653 12.3648 19.6971 12.2096L21.9729 4.13199C22.0038 4.02296 22.0084 3.90847 21.9861 3.79746C21.9638 3.68645 21.9154 3.58192 21.8445 3.49201C21.7737 3.40211 21.6823 3.32926 21.5776 3.27914C21.4729 3.22902 21.3576 3.20298 21.2408 3.20307H3.69818L3.4137 1.60591C3.38219 1.43417 3.28855 1.27889 3.14955 1.16789C3.01056 1.05688 2.83528 0.997399 2.6551 1.00009H0.758601C0.557407 1.00009 0.364454 1.07745 0.222189 1.21517C0.0799238 1.35288 0 1.53966 0 1.73441C0 1.92917 0.0799238 2.11595 0.222189 2.25366C0.364454 2.39138 0.557407 2.46874 0.758601 2.46874H2.02167L3.64887 11.2807C3.3002 11.2898 2.9568 11.3654 2.63829 11.503C2.31978 11.6406 2.03239 11.8376 1.79254 12.0828C1.30812 12.5779 1.04672 13.2389 1.06583 13.9206C1.08495 14.6022 1.38301 15.2486 1.89446 15.7175C2.4059 16.1864 3.08883 16.4395 3.793 16.421H4.43023C4.23667 16.8127 4.14883 17.2456 4.17489 17.6792C4.20096 18.1127 4.34009 18.5328 4.57929 18.9002C4.81849 19.2676 5.14997 19.5703 5.54277 19.7801C5.93557 19.9899 6.37688 20.1 6.82551 20.1C7.27414 20.1 7.71546 19.9899 8.10826 19.7801C8.50106 19.5703 8.83253 19.2676 9.07173 18.9002C9.31094 18.5328 9.45006 18.1127 9.47613 17.6792C9.5022 17.2456 9.41435 16.8127 9.22079 16.421H13.1541C12.9606 16.8127 12.8727 17.2456 12.8988 17.6792C12.9249 18.1127 13.064 18.5328 13.3032 18.9002C13.5424 19.2676 13.8739 19.5703 14.2667 19.7801C14.6595 19.9899 15.1008 20.1 15.5494 20.1C15.9981 20.1 16.4394 19.9899 16.8322 19.7801C17.225 19.5703 17.5564 19.2676 17.7956 18.9002C18.0348 18.5328 18.174 18.1127 18.2 17.6792C18.2261 17.2456 18.1383 16.8127 17.9447 16.421H20.1029C20.3041 16.421 20.4971 16.3436 20.6393 16.2059C20.7816 16.0682 20.8615 15.8814 20.8615 15.6866C20.8615 15.4919 20.7816 15.3051 20.6393 15.1674C20.4971 15.0297 20.3041 14.9523 20.1029 14.9523H3.793C3.49121 14.9523 3.20178 14.8363 2.98839 14.6297C2.77499 14.4231 2.6551 14.143 2.6551 13.8508C2.6551 13.5587 2.77499 13.2785 2.98839 13.0719C3.20178 12.8654 3.49121 12.7493 3.793 12.7493ZM20.2471 4.67172L18.3847 11.2807H5.18504L3.96748 4.67172H20.2471ZM7.96531 17.5225C7.96531 17.7403 7.89857 17.9533 7.77354 18.1344C7.64851 18.3155 7.47079 18.4567 7.26287 18.5401C7.05494 18.6235 6.82615 18.6453 6.60542 18.6028C6.38468 18.5603 6.18193 18.4554 6.02279 18.3013C5.86365 18.1473 5.75528 17.951 5.71137 17.7373C5.66747 17.5237 5.69 17.3022 5.77612 17.1009C5.86225 16.8997 6.0081 16.7276 6.19523 16.6066C6.38235 16.4856 6.60235 16.421 6.82741 16.421C7.1292 16.421 7.41863 16.537 7.63203 16.7436C7.84543 16.9502 7.96531 17.2303 7.96531 17.5225ZM16.6892 17.5225C16.6892 17.7403 16.6225 17.9533 16.4974 18.1344C16.3724 18.3155 16.1947 18.4567 15.9868 18.5401C15.7789 18.6235 15.5501 18.6453 15.3293 18.6028C15.1086 18.5603 14.9058 18.4554 14.7467 18.3013C14.5876 18.1473 14.4792 17.951 14.4353 17.7373C14.3914 17.5237 14.4139 17.3022 14.5 17.1009C14.5862 16.8997 14.732 16.7276 14.9191 16.6066C15.1063 16.4856 15.3263 16.421 15.5513 16.421C15.8531 16.421 16.1425 16.537 16.3559 16.7436C16.5693 16.9502 16.6892 17.2303 16.6892 17.5225Z" fill="#1D1D1B"/>
</svg>
