<svg width="16" height="17" viewBox="0 0 16 17" fill="none" xmlns="http://www.w3.org/2000/svg">
<g clip-path="url(#clip0_2045_1062)">
<path d="M5.6665 7.667H1.5C0.673 7.667 0 6.994 0 6.167V2C0 1.173 0.673 0.5 1.5 0.5H5.6665C6.4935 0.5 7.1665 1.173 7.1665 2V6.167C7.1665 6.994 6.494 7.667 5.6665 7.667ZM14.5 7.667H10.333C9.506 7.667 8.833 6.994 8.833 6.167V2C8.833 1.173 9.506 0.5 10.333 0.5H14.5C15.327 0.5 16 1.173 16 2V6.167C16 6.994 15.327 7.667 14.5 7.667ZM5.6665 16.469H1.5C0.673 16.469 0 15.796 0 14.969V10.802C0 9.975 0.673 9.302 1.5 9.302H5.6665C6.4935 9.302 7.1665 9.975 7.1665 10.802V14.969C7.1665 15.796 6.494 16.469 5.6665 16.469ZM14.5 16.469H10.333C9.506 16.469 8.833 15.796 8.833 14.969V10.802C8.833 9.975 9.506 9.302 10.333 9.302H14.5C15.327 9.302 16 9.975 16 10.802V14.969C16 15.796 15.327 16.469 14.5 16.469Z" fill="white"/>
</g>
<defs>
<clipPath id="clip0_2045_1062">
<rect width="16" height="16" fill="white" transform="translate(0 0.5)"/>
</clipPath>
</defs>
</svg>
