<svg width="11" height="11" viewBox="0 0 11 11" fill="none" xmlns="http://www.w3.org/2000/svg">
<path d="M10.6744 1.87857C11.1039 1.44909 11.1039 0.751601 10.6744 0.322115C10.245 -0.107372 9.54748 -0.107372 9.11799 0.322115L5.5 3.94354L1.87857 0.32555C1.44909 -0.103936 0.751601 -0.103936 0.322115 0.32555C-0.107372 0.755037 -0.107372 1.45252 0.322115 1.88201L3.94354 5.5L0.325551 9.12143C-0.103936 9.55091 -0.103936 10.2484 0.325551 10.6779C0.755037 11.1074 1.45252 11.1074 1.88201 10.6779L5.5 7.05646L9.12143 10.6744C9.55091 11.1039 10.2484 11.1039 10.6779 10.6744C11.1074 10.245 11.1074 9.54748 10.6779 9.11799L7.05646 5.5L10.6744 1.87857Z" fill="#1D1D1B"/>
</svg>
