<svg width="20" height="20" viewBox="0 0 20 20" fill="none" xmlns="http://www.w3.org/2000/svg">
<path d="M8.82031 17.6163L8.72266 17.5265L1.87891 11.171C0.679687 10.0577 0 8.49525 0 6.85853V6.72962C0 3.97962 1.95312 1.62025 4.65625 1.10462C6.19531 0.807747 7.76953 1.16322 9.02344 2.04603C9.375 2.29603 9.70312 2.58509 10 2.91712C10.1641 2.72962 10.3398 2.55775 10.5273 2.39759C10.6719 2.27259 10.8203 2.1554 10.9766 2.04603C12.2305 1.16322 13.8047 0.807747 15.3438 1.10072C18.0469 1.61634 20 3.97962 20 6.72962V6.85853C20 8.49525 19.3203 10.0577 18.1211 11.171L11.2773 17.5265L11.1797 17.6163C10.8594 17.9132 10.4375 18.0812 10 18.0812C9.5625 18.0812 9.14062 17.9171 8.82031 17.6163ZM9.33984 4.99134C9.32422 4.97962 9.3125 4.964 9.30078 4.94837L8.60547 4.16712L8.60156 4.16322C7.69922 3.1515 6.33594 2.69056 5.00781 2.94447C3.1875 3.29212 1.875 4.87806 1.875 6.72962V6.85853C1.875 7.97181 2.33984 9.03822 3.15625 9.79603L10 16.1515L16.8438 9.79603C17.6602 9.03822 18.125 7.97181 18.125 6.85853V6.72962C18.125 4.88197 16.8125 3.29212 14.9961 2.94447C13.668 2.69056 12.3008 3.1554 11.4023 4.16322C11.4023 4.16322 11.4023 4.16322 11.3984 4.16712C11.3945 4.17103 11.3984 4.16712 11.3945 4.17103L10.6992 4.95228C10.6875 4.9679 10.6719 4.97962 10.6602 4.99525C10.4844 5.17103 10.2461 5.26869 10 5.26869C9.75391 5.26869 9.51562 5.17103 9.33984 4.99525V4.99134Z" fill="#8B8C95"/>
</svg>
