<svg width="22" height="22" viewBox="0 0 22 22" fill="none" xmlns="http://www.w3.org/2000/svg">
<path d="M9.70234 20.278L9.59492 20.1791L2.0668 13.1881C0.747656 11.9635 0 10.2448 0 8.44438V8.30259C0 5.27759 2.14844 2.68227 5.12187 2.11509C6.81484 1.78852 8.54648 2.17954 9.92578 3.15063C10.3125 3.42563 10.6734 3.7436 11 4.10884C11.1805 3.90259 11.3738 3.71352 11.5801 3.53735C11.7391 3.39985 11.9023 3.27095 12.0742 3.15063C13.4535 2.17954 15.1852 1.78852 16.8781 2.11079C19.8516 2.67798 22 5.27759 22 8.30259V8.44438C22 10.2448 21.2523 11.9635 19.9332 13.1881L12.4051 20.1791L12.2977 20.278C11.9453 20.6045 11.4812 20.7893 11 20.7893C10.5188 20.7893 10.0547 20.6088 9.70234 20.278ZM10.2738 6.39048C10.2566 6.37759 10.2438 6.3604 10.2309 6.34321L9.46602 5.48384L9.46172 5.47954C8.46914 4.36665 6.96953 3.85962 5.50859 4.13891C3.50625 4.52134 2.0625 6.26587 2.0625 8.30259V8.44438C2.0625 9.66899 2.57383 10.842 3.47188 11.6756L11 18.6667L18.5281 11.6756C19.4262 10.842 19.9375 9.66899 19.9375 8.44438V8.30259C19.9375 6.27016 18.4937 4.52134 16.4957 4.13891C15.0348 3.85962 13.5309 4.37095 12.5426 5.47954C12.5426 5.47954 12.5426 5.47954 12.5383 5.48384C12.534 5.48813 12.5383 5.48384 12.534 5.48813L11.7691 6.34751C11.7562 6.3647 11.7391 6.37759 11.7262 6.39477C11.5328 6.58813 11.2707 6.69556 11 6.69556C10.7293 6.69556 10.4672 6.58813 10.2738 6.39477V6.39048Z" fill="#1D1D1B"/>
</svg>
