<svg width="20" height="20" viewBox="0 0 20 20" fill="none" xmlns="http://www.w3.org/2000/svg">
<path d="M8.72266 17.5265L8.82031 17.6163C9.14062 17.9171 9.5625 18.0812 10 18.0812C10.4375 18.0812 10.8594 17.9132 11.1797 17.6163L11.2773 17.5265L18.1211 11.171C19.3203 10.0577 20 8.49525 20 6.85853V6.72962C20 3.97962 18.0469 1.61634 15.3438 1.10072C13.8047 0.807747 12.2305 1.16322 10.9766 2.04603C10.8203 2.1554 10.6719 2.27259 10.5273 2.39759C10.3398 2.55775 10.1641 2.72962 10 2.91712C9.70312 2.58509 9.375 2.29603 9.02344 2.04603C7.76953 1.16322 6.19531 0.807747 4.65625 1.10462C1.95312 1.62025 0 3.97962 0 6.72962V6.85853C0 8.49525 0.679688 10.0577 1.87891 11.171L8.72266 17.5265Z" fill="#179C49"/>
</svg>
