<svg width="16" height="17" viewBox="0 0 16 17" fill="none" xmlns="http://www.w3.org/2000/svg">
<path d="M9.17891 15.625C10.6484 13.7441 14 9.18555 14 6.625C14 3.51953 11.5365 1 8.5 1C5.46354 1 3 3.51953 3 6.625C3 9.18555 6.35156 13.7441 7.82109 15.625C8.17344 16.0732 8.82656 16.0732 9.17891 15.625ZM8.5 4.75C8.98623 4.75 9.45255 4.94754 9.79636 5.29917C10.1402 5.6508 10.3333 6.12772 10.3333 6.625C10.3333 7.12228 10.1402 7.59919 9.79636 7.95082C9.45255 8.30246 8.98623 8.5 8.5 8.5C8.01377 8.5 7.54745 8.30246 7.20364 7.95082C6.85982 7.59919 6.66667 7.12228 6.66667 6.625C6.66667 6.12772 6.85982 5.6508 7.20364 5.29917C7.54745 4.94754 8.01377 4.75 8.5 4.75Z" fill="#8B8C95"/>
</svg>
