<svg width="15" height="15" viewBox="0 0 15 15" fill="none" xmlns="http://www.w3.org/2000/svg">
<path fill-rule="evenodd" clip-rule="evenodd" d="M12.5001 2.5H2.50012C1.99916 2.5 1.56456 2.79867 1.36561 3.22674C1.43252 3.24148 1.4977 3.26938 1.55733 3.31113L7.50012 7.47108L13.4429 3.31113C13.5025 3.26938 13.5677 3.24148 13.6346 3.22674C13.4356 2.79867 13.0011 2.5 12.5001 2.5ZM13.7501 4.40393L7.80733 8.56388C7.62287 8.693 7.37737 8.693 7.19291 8.56388L1.25012 4.40393V11.25C1.25012 11.9375 1.81262 12.5 2.50012 12.5H12.5001C13.1876 12.5 13.7501 11.9375 13.7501 11.25V4.40393Z" fill="#8B8C95"/>
</svg>
