<svg width="22" height="22" viewBox="0 0 22 22" fill="none" xmlns="http://www.w3.org/2000/svg">
<g clip-path="url(#clip0_2047_1071)">
<mask id="mask0_2047_1071" style="mask-type:luminance" maskUnits="userSpaceOnUse" x="0" y="0" width="22" height="22">
<path d="M22 0H0V22H22V0Z" fill="white"/>
</mask>
<g mask="url(#mask0_2047_1071)">
<path d="M13.3428 14.2518L12.9253 14.6913C12.9253 14.6913 11.933 15.7361 9.22419 12.8843C6.51545 10.0325 7.50781 8.9877 7.50781 8.9877L7.77073 8.7109C8.41841 8.02902 8.47948 6.93428 7.91439 6.13506L6.75849 4.5002C6.05909 3.51102 4.70763 3.38034 3.90599 4.2243L2.46719 5.7391C2.06971 6.15758 1.80335 6.70004 1.83565 7.30182C1.91829 8.84138 2.57615 12.1538 6.24709 16.0186C10.14 20.1171 13.7926 20.2799 15.2863 20.1325C15.7587 20.0859 16.1696 19.8311 16.5007 19.4826L17.8029 18.1116C18.6819 17.1862 18.434 15.5997 17.3094 14.9524L15.5581 13.9443C14.8197 13.5193 13.92 13.6442 13.3428 14.2518Z" fill="#1D1D1B"/>
<path d="M15.5833 10.9997C18.1146 10.9997 20.1666 8.94765 20.1666 6.41634C20.1666 3.88504 18.1146 1.83301 15.5833 1.83301C13.052 1.83301 11 3.88504 11 6.41634C11 7.14954 11.1722 7.84252 11.4783 8.45706C11.5596 8.62038 11.5867 8.80703 11.5395 8.98329L11.2665 10.0036C11.148 10.4465 11.5532 10.8517 11.9961 10.7332L13.0164 10.4602C13.1926 10.413 13.3793 10.4401 13.5426 10.5214C14.1572 10.8275 14.8501 10.9997 15.5833 10.9997Z" fill="#179C49"/>
</g>
</g>
<defs>
<clipPath id="clip0_2047_1071">
<rect width="22" height="22" fill="white"/>
</clipPath>
</defs>
</svg>
