<svg width="15" height="15" viewBox="0 0 15 15" fill="none" xmlns="http://www.w3.org/2000/svg">
<path d="M12.1857 6.09286C12.1857 7.43739 11.7493 8.67939 11.014 9.68706L14.7225 13.3984C15.0886 13.7646 15.0886 14.3592 14.7225 14.7254C14.3563 15.0915 13.7617 15.0915 13.3955 14.7254L9.68706 11.014C8.67939 11.7522 7.43739 12.1857 6.09286 12.1857C2.72714 12.1857 0 9.45858 0 6.09286C0 2.72714 2.72714 0 6.09286 0C9.45858 0 12.1857 2.72714 12.1857 6.09286ZM6.09286 10.311C6.64679 10.311 7.1953 10.2019 7.70707 9.9899C8.21883 9.77792 8.68384 9.46722 9.07553 9.07553C9.46722 8.68384 9.77792 8.21883 9.9899 7.70707C10.2019 7.1953 10.311 6.64679 10.311 6.09286C10.311 5.53892 10.2019 4.99042 9.9899 4.47865C9.77792 3.96688 9.46722 3.50188 9.07553 3.11019C8.68384 2.7185 8.21883 2.40779 7.70707 2.19581C7.1953 1.98383 6.64679 1.87473 6.09286 1.87473C5.53892 1.87473 4.99042 1.98383 4.47865 2.19581C3.96688 2.40779 3.50188 2.7185 3.11019 3.11019C2.7185 3.50188 2.40779 3.96688 2.19581 4.47865C1.98383 4.99042 1.87473 5.53892 1.87473 6.09286C1.87473 6.64679 1.98383 7.1953 2.19581 7.70707C2.40779 8.21883 2.7185 8.68384 3.11019 9.07553C3.50188 9.46722 3.96688 9.77792 4.47865 9.9899C4.99042 10.2019 5.53892 10.311 6.09286 10.311Z" fill="#1D1D1B"/>
</svg>
