<svg width="22" height="22" viewBox="0 0 22 22" fill="none" xmlns="http://www.w3.org/2000/svg">
<path d="M14.0625 5.5C14.0625 4.58832 13.7003 3.71398 13.0557 3.06932C12.411 2.42466 11.5367 2.0625 10.625 2.0625C9.71332 2.0625 8.83898 2.42466 8.19432 3.06932C7.54966 3.71398 7.1875 4.58832 7.1875 5.5C7.1875 6.41168 7.54966 7.28602 8.19432 7.93068C8.83898 8.57534 9.71332 8.9375 10.625 8.9375C11.5367 8.9375 12.411 8.57534 13.0557 7.93068C13.7003 7.28602 14.0625 6.41168 14.0625 5.5ZM5.125 5.5C5.125 4.04131 5.70446 2.64236 6.73591 1.61091C7.76736 0.579463 9.16631 0 10.625 0C12.0837 0 13.4826 0.579463 14.5141 1.61091C15.5455 2.64236 16.125 4.04131 16.125 5.5C16.125 6.95869 15.5455 8.35764 14.5141 9.38909C13.4826 10.4205 12.0837 11 10.625 11C9.16631 11 7.76736 10.4205 6.73591 9.38909C5.70446 8.35764 5.125 6.95869 5.125 5.5ZM3.11836 19.9375H18.1359C17.7535 17.2176 15.416 15.125 12.593 15.125H8.66562C5.84258 15.125 3.50508 17.2176 3.12266 19.9375H3.11836ZM1 20.7238C1 16.4914 4.42891 13.0625 8.66133 13.0625H12.5887C16.8211 13.0625 20.25 16.4914 20.25 20.7238C20.25 21.4285 19.6785 22 18.9738 22H2.27617C1.57148 22 1 21.4285 1 20.7238Z" fill="#1D1D1B"/>
</svg>
